<svg xmlns="http://www.w3.org/2000/svg" width="1240" height="1240"><path d="M78.5 1c-.34.55-1.884 1-3.431 1C71.898 2 57.01 6.625 55.55 8.064c-.523.515-1.578.936-2.347.936-2.711 0-18.193 10.978-24.955 17.696C17.832 37.045 9.256 51.114 5.509 64a608.542 608.542 0 01-2.554 8.571c-1.314 4.224-1.302 1090.687.012 1094.858.532 1.689 1.753 5.771 2.712 9.071 5.682 19.547 19.735 37.537 38.821 49.699 9.426 6.006 24.162 11.759 30.191 11.786 1.755.008 3.469.465 3.809 1.015.411.665 182.324 1 542.5 1s542.089-.335 542.5-1c.34-.55 2.058-1 3.817-1 2.719 0 12.205-2.957 21.695-6.762 5.772-2.315 21.138-13.643 26.988-19.897 9.763-10.437 17.473-23.471 20.907-35.341.716-2.475 1.704-5.534 2.197-6.797 1.194-3.061 1.194-1095.345 0-1098.406-.493-1.263-1.47-4.322-2.172-6.797-3.572-12.594-13.854-29.007-24.125-38.511-9.608-8.891-11.23-10.049-21.965-15.677C1184.886 6.689 1170.766 2 1167.317 2c-1.759 0-3.477-.45-3.817-1-.858-1.387-1084.142-1.387-1085 0M262 173.102c-6.266.989-13.558 2.706-16.5 3.885-1.1.441-4.25 1.603-7 2.582-15.754 5.61-34.565 20.029-45.569 34.931-19.523 26.437-26.03 59.414-17.758 90 5.139 19.001 13.45 33.248 27.759 47.583 13.132 13.154 24.801 20.503 41.068 25.864 9.216 3.037 25.807 6.053 33.298 6.053 6.827 0 23.985-2.923 31.898-5.435 28.084-8.913 50.756-28.867 64.209-56.508 1.977-4.063 3.595-7.994 3.595-8.736 0-.741.427-2.13.95-3.085 5.185-9.478 6.541-47.09 2.11-58.535-.468-1.211-1.433-4.226-2.144-6.701-2.21-7.696-8.536-20.172-14.306-28.213-14.463-20.158-36.054-35.246-59.11-41.307-12.441-3.27-30.461-4.278-42.5-2.378m540 279.917c-18.25 3.057-39.061 8.709-41.67 11.317-.365.365-1.294.664-2.065.664-2.153 0-23.845 11.084-32.265 16.486-14.29 9.168-30.151 23.042-43.46 38.014-1.956 2.2-6.982 9.063-11.17 15.25-11.873 17.542-11.296 18.959-11.609-28.5l-.261-39.75h-174v588h182l.542-166.5c.413-127.173.838-168.153 1.797-173.5 3.874-21.607 4.607-24.708 8.766-37.095 8.565-25.504 22.774-43.177 43.454-54.046 22.791-11.977 57.067-15.763 83.441-9.214 30.294 7.522 48.906 25.928 59.513 58.855 3.119 9.685 5.365 20.942 7.181 36 .637 5.282 1.268 72.29 1.666 177l.64 168.5h181.349l.215-177.5c.208-172.13-.017-195.572-2.045-212.5-.528-4.4-1.226-10.925-1.553-14.5-.326-3.575-.986-8.975-1.466-12-.48-3.025-1.394-8.875-2.031-13-1.425-9.225-4.512-23.479-7.039-32.5-1.277-4.558-6.073-19.736-6.952-22-.427-1.1-1.345-3.575-2.041-5.5-4.386-12.138-21.075-41.728-27.155-48.147-.705-.744-3.757-4.247-6.782-7.784-16.612-19.424-47.652-38.618-74.5-46.067l-10-2.774c-12.552-3.481-24.863-5.657-43.702-7.724-19.062-2.092-54.829-1.824-68.798.515M186 760.5V1055h182V466H186v294.5" fill="undefined" fill-rule="evenodd"/></svg>